<?xml version="1.0" encoding="utf-8"?>
<!-- Generator: Adobe Illustrator 25.4.1, SVG Export Plug-In . SVG Version: 6.00 Build 0)  -->
<svg version="1.1" id="Layer_1" xmlns="http://www.w3.org/2000/svg" xmlns:xlink="http://www.w3.org/1999/xlink" x="0px" y="0px"
	 viewBox="0 0 477.1 116.3" style="enable-background:new 0 0 477.1 116.3;" xml:space="preserve">
<style type="text/css">
	.st0{fill:#36A9E1;}
	.st1{fill:#82008C;}
	.st2{fill:url(#SVGID_1_);}
	.st3{fill:#6AEAE4;}
	.st4{fill:url(#SVGID_00000017515225803290432840000009211057743307737237_);}
	.st5{fill:url(#SVGID_00000059988004925639406070000008234730038483999880_);}
	.st6{fill:url(#SVGID_00000009588117299056955770000015391491653644102031_);}
</style>
<g>
	<g>
		<path class="st0" d="M112.2,60.6c0.3,0.5,0.8,1,1.3,1.4s1,0.7,1.6,1c0.5,0.2,1,0.4,1.5,0.5c0.5,0.1,0.9,0.2,1.2,0.2
			c0.4,0,1,0,1.6-0.1s1.2-0.3,1.7-0.5c0.5-0.2,1-0.6,1.4-1c0.4-0.4,0.6-1,0.6-1.6c0-0.6-0.1-1.2-0.4-1.6c-0.3-0.4-0.7-0.7-1.2-1
			c-0.5-0.3-1.1-0.5-1.7-0.7c-0.6-0.2-1.3-0.4-2.1-0.6c-1.7-0.4-3.1-1-4.3-1.6c-1.2-0.6-2.2-1.4-2.9-2.2s-1.3-1.7-1.7-2.7
			c-0.4-1-0.5-2-0.5-3.2c0-1.3,0.3-2.5,0.8-3.6c0.5-1.1,1.2-2,2.2-2.8c0.9-0.8,2-1.4,3.4-1.8c1.3-0.4,2.8-0.6,4.3-0.6
			c1.1,0,2.1,0.1,3,0.3c0.9,0.2,1.7,0.5,2.5,0.9s1.5,0.9,2.1,1.5c0.7,0.6,1.3,1.3,2,2.1c0.2,0.3,0.4,0.6,0.4,0.8
			c0,0.3-0.2,0.6-0.5,0.8c-0.2,0.2-0.5,0.4-0.9,0.7c-0.3,0.3-0.7,0.6-1,0.8c-0.3,0.3-0.6,0.5-0.9,0.7c-0.3,0.2-0.5,0.3-0.7,0.3
			c-0.4,0-0.7-0.2-1-0.6c-0.4-0.4-0.7-0.8-1.1-1.1c-0.4-0.3-0.7-0.6-1.1-0.8c-0.4-0.2-0.8-0.4-1.3-0.5c-0.4-0.1-0.9-0.2-1.5-0.2
			c-0.4,0-0.9,0.1-1.4,0.2c-0.5,0.1-0.9,0.3-1.3,0.6c-0.4,0.3-0.7,0.6-1,0.9s-0.4,0.8-0.4,1.2c0,0.5,0.2,1,0.5,1.3s0.7,0.7,1.2,0.9
			c0.5,0.3,1.1,0.5,1.6,0.7c0.6,0.2,1.1,0.3,1.7,0.5c1.5,0.4,2.8,0.9,4.1,1.4c1.2,0.5,2.3,1.2,3.2,2c0.9,0.8,1.6,1.7,2.1,2.7
			c0.5,1.1,0.7,2.3,0.7,3.7c0,1.5-0.3,2.8-0.9,4c-0.6,1.2-1.4,2.2-2.5,3c-1,0.8-2.3,1.4-3.7,1.9c-1.4,0.4-3,0.6-4.7,0.6
			c-1,0-2-0.1-3.1-0.3c-1-0.2-2-0.6-3-1s-1.8-1-2.6-1.8c-0.8-0.7-1.5-1.6-2-2.5c-0.2-0.4-0.4-0.8-0.4-1.1c0-0.2,0.1-0.4,0.2-0.5
			c0.1-0.2,0.2-0.3,0.4-0.4l2.7-2.1c0.2-0.1,0.5-0.2,0.6-0.2c0.2,0,0.4,0.1,0.6,0.2C111.8,60.1,112,60.3,112.2,60.6z"/>
		<path class="st0" d="M146.4,69.2c-1.3,0-2.5-0.2-3.6-0.6c-1.1-0.4-2.1-0.9-2.9-1.6c-0.8-0.7-1.5-1.6-2-2.6c-0.5-1-0.7-2.2-0.7-3.5
			v-4V44.7h-2.8c-0.5,0-0.8-0.1-1-0.3s-0.3-0.6-0.3-1v-3.4c0-0.5,0.1-0.8,0.3-1c0.2-0.2,0.6-0.3,1-0.3h2.8c0-0.8,0-1.7,0-2.5
			c0-0.8,0-1.7,0-2.5c0-0.3,0.1-0.6,0.3-0.8c0.2-0.2,0.5-0.3,0.9-0.5c0.3-0.1,0.6-0.2,1-0.3c0.4-0.1,0.8-0.3,1.2-0.4
			c0.4-0.1,0.8-0.2,1.2-0.3c0.4-0.1,0.7-0.1,1-0.1c0.5,0,0.8,0.1,1,0.4c0.2,0.3,0.2,0.6,0.2,1.1c0,1,0,2,0,3c0,1,0,2,0,3h3.5
			c0.4,0,0.7,0.1,1,0.3c0.2,0.2,0.3,0.6,0.3,1v3.3c0,0.5-0.1,0.9-0.3,1.1s-0.5,0.3-1,0.3H144c0,1,0,1.9,0,2.6s0,1.4,0,1.9
			c0,0.6,0,1.1,0,1.6c0,0.5,0,1,0,1.6c0,0.6,0,1.2,0,1.9c0,0.7,0,1.6,0,2.6c0,0,0,0.1,0,0.1c0,0,0,0.1,0,0.1v3.2
			c0,1.1,0.2,1.8,0.6,2.3c0.4,0.5,1.1,0.7,2,0.7c0.3,0,0.6,0.1,0.8,0.4c0.2,0.2,0.3,0.5,0.3,0.9v3.3c0,0.4-0.1,0.7-0.3,1
			S146.8,69.2,146.4,69.2z"/>
		<path class="st0" d="M178.5,65.8c-1.4,1.2-3,2.1-4.6,2.8c-1.7,0.7-3.5,1-5.5,1c-2.2,0-4.2-0.4-6.2-1.2c-1.9-0.8-3.6-1.9-5.1-3.4
			c-1.5-1.4-2.6-3.1-3.5-5c-0.9-1.9-1.3-4-1.3-6.2c0-1.4,0.2-2.8,0.5-4.1c0.4-1.3,0.9-2.6,1.5-3.7s1.4-2.2,2.4-3.2
			c0.9-1,2-1.8,3.1-2.5c1.1-0.7,2.4-1.2,3.7-1.6c1.3-0.4,2.8-0.6,4.2-0.6c1.2,0,2.4,0.1,3.6,0.4c1.2,0.3,2.3,0.7,3.4,1.3
			c1.1,0.5,2.1,1.2,3,2c0.9,0.8,1.7,1.7,2.5,2.6c1,1.3,1.7,2.8,2.1,4.4c0.4,1.6,0.7,3.3,0.7,5.2c0,0.5,0,0.9-0.1,1.2
			c0,0.3-0.1,0.6-0.3,0.8c-0.2,0.2-0.4,0.3-0.7,0.4c-0.3,0.1-0.8,0.1-1.3,0.1h-21.3c0.2,1.2,0.6,2.2,1.2,3.1
			c0.6,0.9,1.3,1.6,2.1,2.3c0.8,0.6,1.7,1.1,2.6,1.4c0.9,0.3,1.9,0.5,2.8,0.5c0.7,0,1.4-0.1,2.1-0.2c0.7-0.1,1.3-0.3,1.9-0.6
			c0.6-0.2,1.1-0.5,1.6-0.8c0.5-0.3,0.9-0.6,1.3-1c0,0,0,0,0,0c0.2-0.2,0.4-0.3,0.6-0.4c0.2-0.1,0.4-0.2,0.6-0.2
			c0.1,0,0.3,0,0.5,0.1c0.2,0.1,0.4,0.3,0.5,0.5c0.4,0.5,0.8,1,1.1,1.3c0.3,0.4,0.6,0.6,0.7,0.9s0.3,0.4,0.4,0.6
			c0.1,0.2,0.1,0.4,0.1,0.5C179.4,64.9,179.1,65.4,178.5,65.8z M167.8,44.1c-0.9,0-1.9,0.2-2.8,0.5s-1.7,0.8-2.5,1.4
			s-1.4,1.3-1.9,2.1s-1,1.7-1.2,2.6h17c-0.3-1-0.6-1.9-1.2-2.7c-0.5-0.8-1.2-1.5-1.9-2.1c-0.7-0.6-1.6-1-2.5-1.4
			C169.9,44.3,168.9,44.1,167.8,44.1z"/>
		<path class="st0" d="M188.8,31c0-0.4,0.1-0.8,0.3-1c0.2-0.3,0.6-0.4,1-0.4h4.2c0.3,0,0.6,0.1,0.9,0.4c0.3,0.3,0.4,0.6,0.4,1v36.7
			c0,0.5-0.1,0.8-0.4,1.1s-0.6,0.4-1.1,0.4h-4c-0.5,0-0.9-0.1-1.1-0.4c-0.2-0.2-0.3-0.6-0.3-1.1V31z"/>
		<path class="st0" d="M202.4,31c0-0.4,0.1-0.8,0.3-1c0.2-0.3,0.6-0.4,1-0.4h4.2c0.3,0,0.6,0.1,0.9,0.4c0.3,0.3,0.4,0.6,0.4,1v36.7
			c0,0.5-0.1,0.8-0.4,1.1s-0.6,0.4-1.1,0.4h-4c-0.5,0-0.9-0.1-1.1-0.4c-0.2-0.2-0.3-0.6-0.3-1.1V31z"/>
		<path class="st0" d="M246.7,67.8c0,0.3-0.1,0.5-0.2,0.7c-0.1,0.2-0.3,0.3-0.5,0.4c-0.2,0.1-0.4,0.2-0.7,0.2s-0.5,0.1-0.8,0.1h-3
			c-0.5,0-0.9-0.1-1.1-0.4c-0.2-0.3-0.3-0.6-0.4-1l-0.1-2c-0.6,0.6-1.2,1.1-1.9,1.6s-1.4,0.9-2.2,1.3c-0.8,0.4-1.6,0.6-2.5,0.8
			c-0.9,0.2-1.8,0.3-2.7,0.3c-1.4,0-2.8-0.2-4.2-0.6c-1.3-0.4-2.6-0.9-3.8-1.6c-1.2-0.7-2.2-1.5-3.2-2.5c-1-1-1.8-2-2.5-3.2
			c-0.7-1.2-1.2-2.4-1.6-3.8c-0.4-1.3-0.6-2.8-0.6-4.2c0-1.5,0.2-2.9,0.6-4.2c0.4-1.3,0.9-2.6,1.6-3.8c0.7-1.2,1.5-2.2,2.5-3.2
			c1-1,2-1.8,3.2-2.5c1.2-0.7,2.4-1.2,3.8-1.6c1.3-0.4,2.7-0.6,4.2-0.6c1,0,2,0.1,2.9,0.3c0.9,0.2,1.8,0.5,2.6,0.9
			c0.8,0.4,1.6,0.9,2.2,1.4s1.3,1.2,1.9,1.8l0.3-2.6c0.1-0.3,0.2-0.5,0.2-0.7s0.2-0.3,0.3-0.4c0.1-0.1,0.2-0.2,0.4-0.2
			c0.2,0,0.4-0.1,0.6-0.1h2.4c0.3,0,0.5,0,0.8,0.1c0.3,0,0.5,0.1,0.7,0.2c0.2,0.1,0.4,0.2,0.5,0.4c0.1,0.2,0.2,0.4,0.2,0.7V67.8z
			 M221.7,53.9c0,1.3,0.2,2.5,0.7,3.6c0.4,1.1,1.1,2.2,1.9,3c0.8,0.9,1.7,1.6,2.8,2.1c1.1,0.5,2.3,0.8,3.5,0.8
			c1.3,0,2.5-0.3,3.6-0.8c1.1-0.5,2.1-1.2,2.9-2.1c0.8-0.9,1.5-1.9,2-3c0.5-1.1,0.7-2.4,0.7-3.6c0-1.3-0.2-2.5-0.7-3.6
			c-0.5-1.1-1.1-2.2-2-3c-0.8-0.9-1.8-1.6-2.9-2.1c-1.1-0.5-2.3-0.8-3.6-0.8c-1.3,0-2.5,0.3-3.5,0.8c-1.1,0.5-2,1.2-2.8,2.1
			c-0.8,0.9-1.4,1.9-1.9,3C221.9,51.4,221.7,52.6,221.7,53.9z"/>
		<path class="st0" d="M253,40.1c0-0.5,0.2-0.8,0.5-1.1c0.3-0.2,0.7-0.4,1-0.4h3.1c0.4,0,0.7,0.1,0.9,0.4c0.2,0.2,0.4,0.5,0.5,0.9
			c0.1,0.4,0.2,0.7,0.2,1.1c0,0.4,0.1,0.8,0.2,1.1c0.4-0.5,0.8-1,1.2-1.5c0.4-0.5,0.9-0.9,1.5-1.3c0.6-0.4,1.2-0.7,1.9-0.9
			c0.7-0.2,1.5-0.3,2.4-0.3c0.8,0,1.5,0.1,2.2,0.2c0.6,0.1,1.3,0.3,1.8,0.5c0.6,0.2,1.2,0.5,1.7,0.8s1.2,0.7,1.8,1.2
			c0.3,0.2,0.5,0.4,0.7,0.6c0.2,0.2,0.3,0.5,0.3,0.8c0,0.1,0,0.3-0.1,0.4c0,0.1-0.1,0.3-0.2,0.4l-2,3.1c-0.1,0.2-0.3,0.3-0.4,0.3
			c-0.2,0.1-0.3,0.1-0.4,0.1c-0.3,0-0.5-0.1-0.7-0.2c-0.5-0.3-1-0.6-1.4-0.8c-0.4-0.3-0.9-0.5-1.3-0.7c-0.4-0.2-0.8-0.3-1.3-0.4
			c-0.4-0.1-0.9-0.2-1.5-0.2c-1.4,0-2.6,0.5-3.6,1.4c-1,0.9-1.6,2.2-2,3.8v18.1c0,1-0.5,1.4-1.5,1.4h-4c-1,0-1.5-0.5-1.5-1.4V40.1z"
			/>
		<path class="st1" d="M281.3,38.7c0-1.4,0.2-2.8,0.6-4.1c0.4-1.3,1.1-2.5,1.9-3.5c0.8-1,1.9-1.8,3.1-2.4s2.6-0.9,4.1-0.9h0.2
			c0.5,0,0.8,0.1,1.1,0.4c0.3,0.3,0.4,0.7,0.4,1.1v3.3c0,0.5-0.1,0.9-0.4,1.2c-0.2,0.3-0.6,0.5-1,0.5c-0.2,0-0.5,0.1-0.9,0.2
			c-0.4,0.1-0.7,0.3-1.1,0.6c-0.3,0.3-0.6,0.6-0.9,1c-0.2,0.4-0.4,0.9-0.4,1.4v3.9h3.5c0.5,0,0.8,0.1,1.1,0.4
			c0.3,0.2,0.4,0.6,0.4,1.2v3c0,0.6-0.1,1-0.4,1.3c-0.3,0.3-0.6,0.4-1.1,0.4h-3.5v20c0,0.5-0.2,0.9-0.5,1.2
			c-0.3,0.3-0.7,0.4-1.1,0.4h-3.7c-0.5,0-0.9-0.1-1.1-0.4s-0.4-0.7-0.4-1.1v-20H279c-0.5,0-0.8-0.1-1.1-0.4
			c-0.3-0.3-0.4-0.7-0.4-1.3v-3c0-0.6,0.1-1,0.4-1.2c0.3-0.2,0.7-0.4,1.1-0.4h2.4V38.7z"/>
		<path class="st1" d="M297.5,40.1c0-0.5,0.2-0.8,0.5-1.1c0.3-0.2,0.7-0.4,1-0.4h3.1c0.4,0,0.7,0.1,0.9,0.4c0.2,0.2,0.4,0.5,0.5,0.9
			c0.1,0.4,0.2,0.7,0.2,1.1c0,0.4,0.1,0.8,0.2,1.1c0.4-0.5,0.8-1,1.2-1.5c0.4-0.5,0.9-0.9,1.5-1.3c0.6-0.4,1.2-0.7,1.9-0.9
			c0.7-0.2,1.5-0.3,2.4-0.3c0.8,0,1.5,0.1,2.2,0.2c0.6,0.1,1.3,0.3,1.8,0.5c0.6,0.2,1.2,0.5,1.7,0.8s1.2,0.7,1.8,1.2
			c0.3,0.2,0.5,0.4,0.7,0.6c0.2,0.2,0.3,0.5,0.3,0.8c0,0.1,0,0.3-0.1,0.4c0,0.1-0.1,0.3-0.2,0.4l-2,3.1c-0.1,0.2-0.3,0.3-0.4,0.3
			c-0.2,0.1-0.3,0.1-0.4,0.1c-0.3,0-0.5-0.1-0.7-0.2c-0.5-0.3-1-0.6-1.4-0.8c-0.4-0.3-0.9-0.5-1.3-0.7c-0.4-0.2-0.8-0.3-1.3-0.4
			c-0.4-0.1-0.9-0.2-1.5-0.2c-1.4,0-2.6,0.5-3.6,1.4c-1,0.9-1.6,2.2-2,3.8v18.1c0,1-0.5,1.4-1.5,1.4h-4c-1,0-1.5-0.5-1.5-1.4V40.1z"
			/>
		<path class="st1" d="M354.4,67.8c0,0.3-0.1,0.5-0.2,0.7c-0.1,0.2-0.3,0.3-0.5,0.4c-0.2,0.1-0.4,0.2-0.7,0.2
			c-0.2,0-0.5,0.1-0.8,0.1h-3c-0.5,0-0.9-0.1-1.1-0.4c-0.2-0.3-0.3-0.6-0.4-1l-0.1-2c-0.6,0.6-1.2,1.1-1.9,1.6
			c-0.7,0.5-1.4,0.9-2.2,1.3c-0.8,0.4-1.6,0.6-2.5,0.8c-0.9,0.2-1.8,0.3-2.7,0.3c-1.4,0-2.8-0.2-4.2-0.6s-2.6-0.9-3.8-1.6
			c-1.2-0.7-2.2-1.5-3.2-2.5c-1-1-1.8-2-2.5-3.2c-0.7-1.2-1.2-2.4-1.6-3.8s-0.6-2.8-0.6-4.2c0-1.5,0.2-2.9,0.6-4.2
			c0.4-1.3,0.9-2.6,1.6-3.8c0.7-1.2,1.5-2.2,2.5-3.2s2-1.8,3.2-2.5c1.2-0.7,2.4-1.2,3.8-1.6c1.3-0.4,2.7-0.6,4.2-0.6
			c1,0,2,0.1,2.9,0.3c0.9,0.2,1.8,0.5,2.6,0.9c0.8,0.4,1.6,0.9,2.2,1.4s1.3,1.2,1.9,1.8l0.3-2.6c0.1-0.3,0.2-0.5,0.2-0.7
			s0.2-0.3,0.3-0.4c0.1-0.1,0.2-0.2,0.4-0.2c0.2,0,0.4-0.1,0.6-0.1h2.4c0.3,0,0.5,0,0.8,0.1c0.3,0,0.5,0.1,0.7,0.2
			c0.2,0.1,0.4,0.2,0.5,0.4s0.2,0.4,0.2,0.7V67.8z M329.4,53.9c0,1.3,0.2,2.5,0.7,3.6c0.4,1.1,1.1,2.2,1.9,3
			c0.8,0.9,1.7,1.6,2.8,2.1c1.1,0.5,2.3,0.8,3.5,0.8c1.3,0,2.5-0.3,3.6-0.8c1.1-0.5,2.1-1.2,2.9-2.1c0.8-0.9,1.5-1.9,2-3
			c0.5-1.1,0.7-2.4,0.7-3.6c0-1.3-0.2-2.5-0.7-3.6c-0.5-1.1-1.1-2.2-2-3c-0.8-0.9-1.8-1.6-2.9-2.1c-1.1-0.5-2.3-0.8-3.6-0.8
			c-1.3,0-2.5,0.3-3.5,0.8c-1.1,0.5-2,1.2-2.8,2.1c-0.8,0.9-1.4,1.9-1.9,3C329.6,51.4,329.4,52.6,329.4,53.9z"/>
		<path class="st1" d="M361.4,38.9c0.4-0.2,0.9-0.3,1.5-0.3h2.4c0.5,0,0.8,0.2,1,0.5c0.2,0.3,0.4,0.6,0.5,1l0.3,2.3
			c0.4-0.5,0.8-1.1,1.3-1.6c0.5-0.5,1.1-1,1.7-1.3c0.7-0.4,1.4-0.7,2.3-0.9c0.9-0.2,1.9-0.4,3.1-0.4c1.1,0,2.1,0.1,3.1,0.3
			s1.7,0.5,2.5,1c0.7,0.4,1.4,0.9,2,1.6c0.6,0.6,1.1,1.3,1.6,2.1c0.4-0.8,0.9-1.4,1.6-2.1c0.7-0.6,1.4-1.2,2.3-1.6
			c0.9-0.4,1.8-0.8,2.8-1s2.1-0.4,3.2-0.4c1.9,0,3.6,0.3,5,1c1.4,0.7,2.6,1.6,3.6,2.8c1,1.2,1.7,2.6,2.2,4.2
			c0.5,1.6,0.7,3.3,0.7,5.1v16c0,0.6-0.1,1-0.4,1.3s-0.7,0.4-1.2,0.4h-3.7c-0.6,0-1.1-0.1-1.3-0.4c-0.2-0.2-0.3-0.7-0.3-1.3V51.4
			c0-0.8-0.1-1.7-0.4-2.5c-0.2-0.8-0.6-1.5-1.1-2.1s-1.1-1.1-1.9-1.5c-0.8-0.4-1.7-0.6-2.7-0.6c-0.9,0-1.7,0.2-2.5,0.5
			c-0.8,0.3-1.4,0.8-1.9,1.3c-0.5,0.6-1,1.3-1.3,2.1c-0.3,0.8-0.5,1.7-0.5,2.8v16c0,1.2-0.5,1.7-1.6,1.7h-3.7
			c-0.6,0-1.1-0.1-1.3-0.4c-0.2-0.2-0.3-0.7-0.3-1.3V51.4c0-0.8-0.1-1.6-0.3-2.4c-0.2-0.8-0.6-1.5-1.1-2.1s-1.1-1.1-1.9-1.5
			c-0.8-0.4-1.7-0.6-2.7-0.6c-0.7,0-1.5,0.1-2.2,0.4c-0.7,0.3-1.4,0.7-2,1.2s-1.1,1.2-1.5,1.9s-0.6,1.6-0.6,2.6v16.8
			c0,0.4-0.1,0.8-0.4,1c-0.3,0.3-0.6,0.4-1,0.4h-4c-0.5,0-0.9-0.1-1.2-0.4c-0.2-0.2-0.4-0.6-0.4-1.1V40.1
			C360.7,39.5,360.9,39.1,361.4,38.9z"/>
		<path class="st1" d="M437.3,65.8c-1.4,1.2-3,2.1-4.6,2.8c-1.7,0.7-3.5,1-5.5,1c-2.2,0-4.2-0.4-6.2-1.2c-1.9-0.8-3.6-1.9-5.1-3.4
			c-1.5-1.4-2.6-3.1-3.5-5c-0.9-1.9-1.3-4-1.3-6.2c0-1.4,0.2-2.8,0.5-4.1c0.4-1.3,0.9-2.6,1.5-3.7s1.4-2.2,2.4-3.2s2-1.8,3.1-2.5
			c1.1-0.7,2.4-1.2,3.7-1.6c1.3-0.4,2.8-0.6,4.2-0.6c1.2,0,2.4,0.1,3.6,0.4c1.2,0.3,2.3,0.7,3.4,1.3c1.1,0.5,2.1,1.2,3,2
			c0.9,0.8,1.7,1.7,2.5,2.6c1,1.3,1.7,2.8,2.1,4.4c0.4,1.6,0.7,3.3,0.7,5.2c0,0.5,0,0.9-0.1,1.2c0,0.3-0.1,0.6-0.3,0.8
			c-0.2,0.2-0.4,0.3-0.7,0.4c-0.3,0.1-0.8,0.1-1.3,0.1H418c0.2,1.2,0.6,2.2,1.2,3.1c0.6,0.9,1.3,1.6,2.1,2.3
			c0.8,0.6,1.7,1.1,2.6,1.4c0.9,0.3,1.9,0.5,2.8,0.5c0.7,0,1.4-0.1,2.1-0.2c0.7-0.1,1.3-0.3,1.9-0.6c0.6-0.2,1.1-0.5,1.6-0.8
			c0.5-0.3,0.9-0.6,1.3-1c0,0,0,0,0,0c0.2-0.2,0.4-0.3,0.6-0.4c0.2-0.1,0.4-0.2,0.6-0.2c0.1,0,0.3,0,0.5,0.1s0.4,0.3,0.5,0.5
			c0.4,0.5,0.8,1,1.1,1.3c0.3,0.4,0.6,0.6,0.7,0.9s0.3,0.4,0.4,0.6c0.1,0.2,0.1,0.4,0.1,0.5C438.2,64.9,437.9,65.4,437.3,65.8z
			 M426.6,44.1c-0.9,0-1.9,0.2-2.8,0.5c-0.9,0.3-1.7,0.8-2.5,1.4s-1.4,1.3-1.9,2.1c-0.6,0.8-1,1.7-1.2,2.6h17
			c-0.3-1-0.6-1.9-1.2-2.7c-0.5-0.8-1.2-1.5-1.9-2.1c-0.7-0.6-1.6-1-2.5-1.4S427.7,44.1,426.6,44.1z"/>
		<path class="st1" d="M450.8,60.6c0.3,0.5,0.8,1,1.3,1.4c0.5,0.4,1,0.7,1.6,1s1.1,0.4,1.5,0.5c0.5,0.1,0.9,0.2,1.2,0.2
			c0.4,0,1,0,1.6-0.1s1.2-0.3,1.7-0.5c0.5-0.2,1-0.6,1.4-1c0.4-0.4,0.6-1,0.6-1.6c0-0.6-0.1-1.2-0.4-1.6c-0.3-0.4-0.7-0.7-1.2-1
			c-0.5-0.3-1.1-0.5-1.7-0.7c-0.6-0.2-1.3-0.4-2.1-0.6c-1.7-0.4-3.1-1-4.3-1.6s-2.2-1.4-2.9-2.2c-0.8-0.8-1.3-1.7-1.7-2.7
			c-0.4-1-0.5-2-0.5-3.2c0-1.3,0.3-2.5,0.8-3.6c0.5-1.1,1.2-2,2.2-2.8c0.9-0.8,2-1.4,3.4-1.8c1.3-0.4,2.8-0.6,4.3-0.6
			c1.1,0,2.1,0.1,3,0.3c0.9,0.2,1.7,0.5,2.5,0.9s1.5,0.9,2.1,1.5c0.7,0.6,1.3,1.3,2,2.1c0.2,0.3,0.4,0.6,0.4,0.8
			c0,0.3-0.2,0.6-0.5,0.8c-0.2,0.2-0.5,0.4-0.9,0.7c-0.3,0.3-0.7,0.6-1,0.8c-0.3,0.3-0.6,0.5-0.9,0.7c-0.3,0.2-0.5,0.3-0.7,0.3
			c-0.4,0-0.7-0.2-1-0.6c-0.4-0.4-0.7-0.8-1.1-1.1c-0.4-0.3-0.7-0.6-1.1-0.8c-0.4-0.2-0.8-0.4-1.2-0.5c-0.4-0.1-0.9-0.2-1.5-0.2
			c-0.4,0-0.9,0.1-1.4,0.2c-0.5,0.1-0.9,0.3-1.3,0.6c-0.4,0.3-0.7,0.6-1,0.9s-0.4,0.8-0.4,1.2c0,0.5,0.2,1,0.5,1.3s0.7,0.7,1.2,0.9
			c0.5,0.3,1.1,0.5,1.6,0.7c0.6,0.2,1.1,0.3,1.7,0.5c1.5,0.4,2.8,0.9,4.1,1.4c1.2,0.5,2.3,1.2,3.2,2c0.9,0.8,1.6,1.7,2.1,2.7
			c0.5,1.1,0.7,2.3,0.7,3.7c0,1.5-0.3,2.8-0.9,4c-0.6,1.2-1.4,2.2-2.5,3s-2.3,1.4-3.7,1.9c-1.4,0.4-3,0.6-4.7,0.6
			c-1,0-2-0.1-3.1-0.3c-1-0.2-2-0.6-3-1s-1.8-1-2.6-1.8c-0.8-0.7-1.5-1.6-2-2.5c-0.2-0.4-0.4-0.8-0.4-1.1c0-0.2,0.1-0.4,0.2-0.5
			c0.1-0.2,0.2-0.3,0.4-0.4l2.7-2.1c0.2-0.1,0.5-0.2,0.6-0.2c0.2,0,0.4,0.1,0.6,0.2C450.4,60.1,450.6,60.3,450.8,60.6z"/>
	</g>
	<radialGradient id="SVGID_1_" cx="47.2324" cy="42.2006" r="36.1668" gradientUnits="userSpaceOnUse">
		<stop  offset="0" style="stop-color:#FFFFFF"/>
		<stop  offset="0.67" style="stop-color:#6AD7EB"/>
		<stop  offset="1" style="stop-color:#FA43C0"/>
	</radialGradient>
	<path class="st2" d="M38.7,40.7c-0.2,7.8,0.3,20.3,4,31.5c1,3,4.5,4.4,7.3,3c6.7-3.5,17.3-9.8,25.3-18.7c2.1-2.4,1.6-6.1-1.1-7.8
		C62.6,41.4,52.9,37.6,45,35.8C41.9,35.1,38.8,37.5,38.7,40.7z"/>
	<g>
		<path class="st3" d="M91.5,53.4c-0.5-0.7-1.5-0.9-2.2-0.4c-0.7,0.5-0.9,1.5-0.4,2.2c0.1,0.1,6.4,9.9,2.7,16.6
			c-2.6,4.8-9.8,7.1-21.3,6.8c-0.8,0-1.6,0.7-1.6,1.5c0,0.9,0.7,1.6,1.5,1.6c0.6,0,1.1,0,1.6,0c11.8,0,19.3-2.8,22.4-8.5
			C99,64.9,91.9,53.9,91.5,53.4z"/>
		<path class="st3" d="M19.1,38.2c0-1.6-0.5-3-1.4-4.1c2.1-1.3,7-3.7,14.8-4.2c9.8-0.6,26.1,2,48.4,17.6c0.3,0.2,0.6,0.3,0.9,0.3
			c0.5,0,1-0.2,1.3-0.7c0.5-0.7,0.3-1.7-0.4-2.2C59.5,28.7,42.4,26.1,32,26.8c-9.7,0.6-15.3,4.1-17,5.2c-0.8-0.4-1.8-0.6-2.8-0.6
			c-3.7,0-6.8,3-6.8,6.8c0,3.7,3,6.8,6.8,6.8S19.1,41.9,19.1,38.2z M12.3,41.8c-2,0-3.6-1.6-3.6-3.6c0-2,1.6-3.6,3.6-3.6
			s3.6,1.6,3.6,3.6C16,40.2,14.3,41.8,12.3,41.8z"/>
	</g>
	<path class="st0" d="M34.8,84.4c-8.1,0.1-13.3-1.8-15.5-5.7c-4.4-7.9,4.1-21.6,4.2-21.8c0.5-0.7,0.2-1.7-0.5-2.2
		c-0.7-0.5-1.7-0.2-2.2,0.5c-0.4,0.6-9.6,15.5-4.3,25c2.7,4.9,8.7,7.4,17.6,7.4c0.2,0,0.4,0,0.6,0c0.9,0,1.6-0.7,1.6-1.6
		C36.4,85.1,35.7,84.4,34.8,84.4z"/>
	<path class="st0" d="M88.1,34.4c0.3,0,0.5,0,0.8,0c-1.3,31-42.3,47.2-42.7,47.3c-0.8,0.3-1.2,1.2-0.9,2c0.2,0.6,0.8,1,1.5,1
		c0.2,0,0.4,0,0.6-0.1c1.8-0.7,44.5-17.5,44.8-51.5c1.7-1.2,2.9-3.2,2.9-5.5c0-3.7-3-6.8-6.8-6.8c-3.7,0-6.8,3-6.8,6.8
		S84.3,34.4,88.1,34.4z M88.1,24c2,0,3.6,1.6,3.6,3.6s-1.6,3.6-3.6,3.6c-2,0-3.6-1.6-3.6-3.6S86.1,24,88.1,24z"/>
	<g>
		<g>
			<path class="st1" d="M69.5,26.3C69.1,25.7,61,10,49.8,9.7c-6-0.2-11.5,4.1-16.4,12.6c-0.4,0.8-0.2,1.7,0.6,2.1
				c0.8,0.4,1.7,0.2,2.1-0.6c4.3-7.5,8.9-11.2,13.6-11.1c9.3,0.2,16.9,14.8,17,14.9c0.3,0.5,0.8,0.9,1.4,0.9c0.2,0,0.5-0.1,0.7-0.2
				C69.5,28.1,69.9,27.1,69.5,26.3z M58.9,90.7c-2.6,0-4.9,1.5-6,3.6C28.3,78.4,33.6,34.3,33.7,33.9c0.1-0.9-0.5-1.6-1.4-1.8
				c-0.9-0.1-1.6,0.5-1.8,1.4c-0.3,2-5.8,47.6,21.5,64c0,3.7,3.1,6.8,6.8,6.8c3.7,0,6.8-3,6.8-6.8C65.7,93.7,62.6,90.7,58.9,90.7z
				 M58.9,101.1c-2,0-3.6-1.6-3.6-3.6c0-2,1.6-3.6,3.6-3.6c2,0,3.6,1.6,3.6,3.6C62.5,99.5,60.9,101.1,58.9,101.1z"/>
		</g>
	</g>
</g>
<radialGradient id="SVGID_00000135665249432727609360000011569787422509224893_" cx="53.1697" cy="30.2722" r="40.4463" gradientTransform="matrix(0.9977 -6.823894e-02 6.823894e-02 0.9977 -3.1511 3.9811)" gradientUnits="userSpaceOnUse">
	<stop  offset="0" style="stop-color:#F8DC5E"/>
	<stop  offset="0.31" style="stop-color:#8EF778"/>
	<stop  offset="0.67" style="stop-color:#00C7EB"/>
	<stop  offset="1" style="stop-color:#FA43C0"/>
</radialGradient>
<path style="fill:url(#SVGID_00000135665249432727609360000011569787422509224893_);" d="M42.2,57.3c0,0,20.4-10.7,28.9-7.1
	c-8.8-5.9-18.9-8.9-24.6-10.3c-2.5-0.6-4.9,1.2-5.1,3.7C41.2,46.9,41.5,51.7,42.2,57.3z"/>
</svg>
